<?xml version="1.0" encoding="UTF-8"?>
<svg xmlns="http://www.w3.org/2000/svg" xmlns:xlink="http://www.w3.org/1999/xlink" width="32px" height="32px" viewBox="0 0 32 32" version="1.1">
<g id="surface1">
<path style=" stroke:none;fill-rule:nonzero;fill:rgb(99.607843%,99.607843%,99.607843%);fill-opacity:1;" d="M 0 0 C 10.558594 0 21.121094 0 32 0 C 32 10.558594 32 21.121094 32 32 C 21.441406 32 10.878906 32 0 32 C 0 21.441406 0 10.878906 0 0 Z M 0 0 "/>
<path style=" stroke:none;fill-rule:nonzero;fill:rgb(0.784314%,0.784314%,0.784314%);fill-opacity:1;" d="M 23.6875 7.21875 C 23.6875 9.867188 23.6875 12.519531 23.6875 15.25 C 23.273438 15.25 22.863281 15.25 22.4375 15.25 C 22.3125 15.050781 22.3125 15.050781 22.1875 14.84375 C 21.839844 14.410156 21.382812 14.167969 20.835938 14.082031 C 20.21875 14.015625 19.53125 14.078125 19.015625 14.460938 C 18.777344 14.671875 18.625 14.898438 18.585938 15.21875 C 18.5625 15.558594 18.585938 15.867188 18.8125 16.136719 C 19.378906 16.695312 20.222656 16.847656 20.960938 17.058594 C 21.894531 17.328125 22.875 17.65625 23.40625 18.53125 C 23.546875 18.792969 23.632812 19.050781 23.6875 19.34375 C 23.691406 19.375 23.699219 19.40625 23.703125 19.4375 C 23.796875 20.0625 23.621094 20.742188 23.25 21.25 C 22.683594 21.945312 21.894531 22.285156 21.019531 22.390625 C 19.78125 22.515625 18.6875 22.179688 17.71875 21.40625 C 17.613281 21.316406 17.507812 21.21875 17.40625 21.125 C 17.347656 21.070312 17.285156 21.019531 17.226562 20.96875 C 17.171875 20.921875 17.117188 20.871094 17.066406 20.824219 C 16.511719 20.339844 15.964844 20.15625 15.25 20.03125 C 15.25 19.660156 15.25 19.289062 15.25 18.90625 C 16.183594 18.960938 16.90625 19.167969 17.625 19.78125 C 17.648438 19.800781 17.648438 19.800781 17.675781 19.824219 C 17.859375 19.980469 18.039062 20.132812 18.214844 20.296875 C 18.9375 20.949219 19.796875 21.261719 20.765625 21.222656 C 21.296875 21.191406 21.804688 21.019531 22.179688 20.636719 C 22.464844 20.285156 22.484375 19.871094 22.4375 19.4375 C 22.414062 19.320312 22.375 19.226562 22.3125 19.125 C 22.300781 19.105469 22.289062 19.082031 22.277344 19.0625 C 22.050781 18.695312 21.578125 18.511719 21.1875 18.375 C 21.144531 18.359375 21.105469 18.34375 21.0625 18.328125 C 20.78125 18.222656 20.488281 18.136719 20.195312 18.0625 C 19.382812 17.867188 18.539062 17.609375 17.9375 17 C 17.914062 16.976562 17.890625 16.953125 17.863281 16.929688 C 17.515625 16.570312 17.332031 16.113281 17.332031 15.617188 C 17.332031 15.582031 17.332031 15.550781 17.335938 15.515625 C 17.332031 15.484375 17.332031 15.453125 17.332031 15.417969 C 17.339844 14.761719 17.566406 14.21875 18.027344 13.746094 C 18.464844 13.324219 19.039062 13.109375 19.625 13 C 19.652344 12.996094 19.679688 12.988281 19.710938 12.984375 C 19.941406 12.941406 20.164062 12.925781 20.398438 12.929688 C 20.4375 12.929688 20.472656 12.929688 20.507812 12.929688 C 21.242188 12.941406 21.914062 13.121094 22.53125 13.53125 C 22.53125 12.6875 22.53125 11.839844 22.53125 10.96875 C 22.226562 11.019531 22.226562 11.019531 21.925781 11.078125 C 21.894531 11.085938 21.894531 11.085938 21.863281 11.09375 C 21.796875 11.109375 21.730469 11.125 21.664062 11.140625 C 21.636719 11.144531 21.613281 11.148438 21.589844 11.15625 C 21.125 11.257812 20.664062 11.367188 20.203125 11.476562 C 19.78125 11.574219 19.359375 11.671875 18.933594 11.765625 C 18.550781 11.847656 18.164062 11.9375 17.78125 12.027344 C 17.320312 12.132812 16.859375 12.238281 16.398438 12.335938 C 15.71875 12.476562 15.042969 12.632812 14.367188 12.792969 C 14.140625 12.847656 13.914062 12.894531 13.6875 12.9375 C 13.53125 12.96875 13.53125 12.96875 13.375 13 C 13.375 11.835938 13.375 10.667969 13.375 9.46875 C 13.792969 9.363281 13.792969 9.363281 13.953125 9.335938 C 14.460938 9.234375 14.964844 9.125 15.46875 9.003906 C 15.835938 8.914062 16.207031 8.832031 16.578125 8.753906 C 16.628906 8.742188 16.679688 8.730469 16.730469 8.722656 C 16.753906 8.714844 16.78125 8.710938 16.804688 8.703125 C 17.074219 8.648438 17.34375 8.585938 17.613281 8.527344 C 17.636719 8.523438 17.660156 8.515625 17.683594 8.511719 C 17.878906 8.46875 18.078125 8.425781 18.273438 8.378906 C 18.378906 8.355469 18.488281 8.332031 18.59375 8.308594 C 18.628906 8.300781 18.660156 8.292969 18.695312 8.285156 C 18.949219 8.230469 19.203125 8.175781 19.460938 8.121094 C 19.6875 8.074219 19.914062 8.023438 20.140625 7.964844 C 20.308594 7.921875 20.472656 7.886719 20.640625 7.851562 C 20.953125 7.792969 21.261719 7.722656 21.570312 7.648438 C 21.992188 7.550781 22.414062 7.453125 22.839844 7.359375 C 22.894531 7.347656 22.953125 7.335938 23.007812 7.324219 C 23.085938 7.304688 23.164062 7.289062 23.246094 7.269531 C 23.265625 7.265625 23.289062 7.261719 23.316406 7.253906 C 23.445312 7.226562 23.550781 7.21875 23.6875 7.21875 Z M 23.6875 7.21875 "/>
<path style=" stroke:none;fill-rule:nonzero;fill:rgb(0.784314%,0.784314%,0.784314%);fill-opacity:1;" d="M 14.53125 13.46875 C 14.535156 14.507812 14.535156 15.550781 14.539062 16.589844 C 14.539062 16.714844 14.539062 16.835938 14.539062 16.960938 C 14.539062 16.984375 14.539062 17.007812 14.539062 17.035156 C 14.539062 17.429688 14.539062 17.824219 14.539062 18.21875 C 14.542969 18.628906 14.542969 19.035156 14.542969 19.441406 C 14.542969 19.691406 14.542969 19.941406 14.542969 20.191406 C 14.546875 20.382812 14.546875 20.578125 14.546875 20.769531 C 14.546875 20.847656 14.546875 20.925781 14.546875 21.007812 C 14.550781 22.097656 14.285156 22.972656 13.523438 23.789062 C 12.878906 24.417969 11.992188 24.820312 11.085938 24.820312 C 10.277344 24.8125 9.597656 24.507812 9.011719 23.953125 C 8.515625 23.441406 8.269531 22.753906 8.269531 22.046875 C 8.277344 21.636719 8.382812 21.242188 8.5625 20.875 C 8.578125 20.84375 8.59375 20.808594 8.609375 20.777344 C 8.742188 20.511719 8.910156 20.289062 9.09375 20.0625 C 9.109375 20.042969 9.125 20.019531 9.144531 20 C 9.558594 19.480469 10.289062 19.054688 10.929688 18.90625 C 10.953125 18.898438 10.976562 18.894531 11 18.886719 C 11.042969 18.878906 11.085938 18.867188 11.128906 18.859375 C 11.175781 18.847656 11.222656 18.835938 11.265625 18.820312 C 11.445312 18.777344 11.621094 18.773438 11.804688 18.773438 C 11.828125 18.773438 11.851562 18.773438 11.878906 18.773438 C 12.125 18.773438 12.34375 18.808594 12.59375 18.84375 C 12.59375 19.234375 12.59375 19.628906 12.59375 20.03125 C 12.375 20 12.375 20 12.289062 19.984375 C 11.589844 19.882812 10.945312 20.039062 10.371094 20.445312 C 9.941406 20.78125 9.601562 21.230469 9.5 21.78125 C 9.449219 22.207031 9.496094 22.640625 9.757812 22.996094 C 10.039062 23.332031 10.433594 23.585938 10.878906 23.632812 C 11.539062 23.667969 12.144531 23.449219 12.644531 23.015625 C 13.183594 22.46875 13.363281 21.800781 13.363281 21.054688 C 13.363281 20.984375 13.363281 20.910156 13.363281 20.839844 C 13.363281 20.761719 13.363281 20.683594 13.367188 20.605469 C 13.367188 20.4375 13.367188 20.273438 13.367188 20.105469 C 13.367188 19.867188 13.367188 19.628906 13.367188 19.386719 C 13.367188 18.996094 13.367188 18.609375 13.367188 18.21875 C 13.367188 17.839844 13.371094 17.460938 13.371094 17.082031 C 13.371094 17.058594 13.371094 17.035156 13.371094 17.011719 C 13.371094 16.894531 13.371094 16.777344 13.371094 16.660156 C 13.375 15.691406 13.375 14.71875 13.375 13.75 C 13.492188 13.703125 13.605469 13.667969 13.726562 13.640625 C 13.765625 13.632812 13.800781 13.625 13.839844 13.617188 C 13.878906 13.609375 13.917969 13.601562 13.957031 13.59375 C 14.035156 13.574219 14.109375 13.558594 14.1875 13.542969 C 14.21875 13.535156 14.253906 13.527344 14.289062 13.519531 C 14.511719 13.46875 14.511719 13.46875 14.53125 13.46875 Z M 14.53125 13.46875 "/>
<path style=" stroke:none;fill-rule:nonzero;fill:rgb(98.823529%,98.823529%,98.039216%);fill-opacity:1;" d="M 22.53125 8.625 C 22.53125 9.007812 22.53125 9.386719 22.53125 9.78125 C 22.433594 9.800781 22.339844 9.824219 22.238281 9.84375 C 22.144531 9.863281 22.046875 9.886719 21.953125 9.90625 C 21.886719 9.921875 21.824219 9.933594 21.757812 9.949219 C 21.367188 10.03125 20.976562 10.121094 20.585938 10.214844 C 20.378906 10.265625 20.171875 10.3125 19.96875 10.359375 C 19.945312 10.363281 19.925781 10.367188 19.90625 10.371094 C 19.605469 10.4375 19.304688 10.503906 19 10.570312 C 18.746094 10.621094 18.488281 10.679688 18.234375 10.746094 C 18.039062 10.796875 17.84375 10.839844 17.648438 10.882812 C 17.628906 10.886719 17.609375 10.890625 17.589844 10.898438 C 17.339844 10.953125 17.085938 11.007812 16.835938 11.0625 C 16.8125 11.066406 16.789062 11.074219 16.765625 11.078125 C 16.664062 11.097656 16.566406 11.121094 16.46875 11.140625 C 16.101562 11.21875 15.738281 11.304688 15.371094 11.394531 C 15.09375 11.464844 14.816406 11.511719 14.53125 11.5625 C 14.53125 11.171875 14.53125 10.777344 14.53125 10.375 C 14.625 10.355469 14.71875 10.339844 14.8125 10.320312 C 15.003906 10.28125 15.195312 10.242188 15.382812 10.1875 C 15.617188 10.125 15.855469 10.074219 16.09375 10.027344 C 16.28125 9.988281 16.464844 9.949219 16.648438 9.90625 C 16.835938 9.859375 17.027344 9.820312 17.21875 9.78125 C 17.558594 9.714844 17.898438 9.632812 18.234375 9.550781 C 18.632812 9.453125 19.03125 9.367188 19.429688 9.289062 C 19.726562 9.230469 20.019531 9.164062 20.3125 9.089844 C 20.4375 9.058594 20.554688 9.03125 20.683594 9.015625 C 20.78125 9.003906 20.78125 9.003906 20.867188 8.972656 C 20.972656 8.9375 21.082031 8.910156 21.191406 8.886719 C 21.222656 8.878906 21.222656 8.878906 21.253906 8.875 C 21.320312 8.859375 21.386719 8.84375 21.453125 8.828125 C 21.496094 8.820312 21.539062 8.8125 21.585938 8.800781 C 21.671875 8.78125 21.757812 8.765625 21.84375 8.746094 C 21.925781 8.726562 22.011719 8.710938 22.09375 8.691406 C 22.132812 8.683594 22.171875 8.671875 22.210938 8.664062 C 22.246094 8.65625 22.28125 8.648438 22.316406 8.640625 C 22.40625 8.625 22.40625 8.625 22.53125 8.625 Z M 22.53125 8.625 "/>
<path style=" stroke:none;fill-rule:nonzero;fill:rgb(13.333334%,14.117648%,13.333334%);fill-opacity:1;" d="M 19.75 17.84375 C 19.890625 17.875 19.890625 17.875 20.03125 17.90625 C 20.03125 17.9375 20.03125 17.96875 20.03125 18 C 19.917969 17.980469 19.804688 17.957031 19.6875 17.9375 C 19.707031 17.925781 19.730469 17.917969 19.75 17.90625 C 19.75 17.886719 19.75 17.863281 19.75 17.84375 Z M 19.75 17.84375 "/>
<path style=" stroke:none;fill-rule:nonzero;fill:rgb(94.509804%,94.901961%,94.117647%);fill-opacity:1;" d="M 14.53125 21.5 C 14.578125 21.53125 14.578125 21.53125 14.625 21.5625 C 14.605469 21.675781 14.589844 21.691406 14.5 21.78125 C 14.511719 21.6875 14.519531 21.59375 14.53125 21.5 Z M 14.53125 21.5 "/>
<path style=" stroke:none;fill-rule:nonzero;fill:rgb(20.392157%,20.784314%,20%);fill-opacity:1;" d="M 17.53125 14.4375 C 17.550781 14.457031 17.574219 14.480469 17.59375 14.5 C 17.570312 14.59375 17.570312 14.59375 17.53125 14.6875 C 17.5 14.699219 17.46875 14.707031 17.4375 14.71875 C 17.46875 14.625 17.5 14.53125 17.53125 14.4375 Z M 17.53125 14.4375 "/>
<path style=" stroke:none;fill-rule:nonzero;fill:rgb(16.078432%,16.470589%,15.686275%);fill-opacity:1;" d="M 18.8125 11.6875 C 18.925781 11.6875 19.039062 11.6875 19.15625 11.6875 C 19.019531 11.757812 18.933594 11.765625 18.78125 11.78125 C 18.792969 11.75 18.800781 11.71875 18.8125 11.6875 Z M 18.8125 11.6875 "/>
<path style=" stroke:none;fill-rule:nonzero;fill:rgb(85.490197%,85.882354%,84.313726%);fill-opacity:1;" d="M 19.71875 9.28125 C 19.6875 9.292969 19.65625 9.300781 19.625 9.3125 C 19.613281 9.34375 19.605469 9.375 19.59375 9.40625 C 19.542969 9.394531 19.492188 9.386719 19.4375 9.375 C 19.523438 9.246094 19.578125 9.238281 19.71875 9.28125 Z M 19.71875 9.28125 "/>
</g>
</svg>
